<svg width="24" height="25" viewBox="0 0 24 25" fill="none" xmlns="http://www.w3.org/2000/svg">
<path opacity="0.1" fill-rule="evenodd" clip-rule="evenodd" d="M0 12.3857C0 5.75833 5.37258 0.385742 12 0.385742C18.6274 0.385742 24 5.75833 24 12.3857C24 19.0132 18.6274 24.3857 12 24.3857C5.37258 24.3857 0 19.0132 0 12.3857Z" fill="#F9F8F9"/>
<path fill-rule="evenodd" clip-rule="evenodd" d="M12.0006 5.98575C10.2624 5.98575 10.0443 5.99335 9.36161 6.02442C8.68027 6.05562 8.2152 6.16348 7.80827 6.32175C7.38733 6.48522 7.03026 6.70389 6.67452 7.05976C6.31852 7.4155 6.09985 7.77257 5.93585 8.19337C5.77718 8.60044 5.66918 9.06565 5.63851 9.74672C5.60798 10.4294 5.59998 10.6477 5.59998 12.3858C5.59998 14.124 5.60771 14.3414 5.63864 15.0241C5.66998 15.7054 5.77784 16.1705 5.93598 16.5775C6.09958 16.9984 6.31825 17.3555 6.67412 17.7112C7.02972 18.0672 7.38679 18.2864 7.80747 18.4499C8.21467 18.6081 8.67987 18.716 9.36108 18.7472C10.0438 18.7783 10.2618 18.7859 11.9998 18.7859C13.7381 18.7859 13.9555 18.7783 14.6382 18.7472C15.3195 18.716 15.7851 18.6081 16.1924 18.4499C16.6132 18.2864 16.9697 18.0672 17.3253 17.7112C17.6813 17.3555 17.9 16.9984 18.064 16.5776C18.2213 16.1705 18.3293 15.7053 18.3613 15.0242C18.392 14.3416 18.4 14.124 18.4 12.3858C18.4 10.6477 18.392 10.4295 18.3613 9.74685C18.3293 9.06551 18.2213 8.60044 18.064 8.1935C17.9 7.77257 17.6813 7.4155 17.3253 7.05976C16.9693 6.70376 16.6133 6.48509 16.192 6.32175C15.7839 6.16348 15.3186 6.05562 14.6373 6.02442C13.9546 5.99335 13.7373 5.98575 11.9986 5.98575H12.0006ZM11.4264 7.13908C11.5968 7.13881 11.7869 7.13908 12.0005 7.13908C13.7094 7.13908 13.9119 7.14521 14.5867 7.17588C15.2107 7.20441 15.5494 7.30868 15.775 7.39628C16.0737 7.51228 16.2866 7.65095 16.5105 7.87495C16.7345 8.09895 16.8731 8.31229 16.9894 8.61096C17.077 8.83629 17.1814 9.17496 17.2098 9.79897C17.2405 10.4736 17.2471 10.6763 17.2471 12.3843C17.2471 14.0923 17.2405 14.295 17.2098 14.9697C17.1813 15.5937 17.077 15.9324 16.9894 16.1577C16.8734 16.4564 16.7345 16.669 16.5105 16.8929C16.2865 17.1169 16.0738 17.2556 15.775 17.3716C15.5497 17.4596 15.2107 17.5636 14.5867 17.5921C13.912 17.6228 13.7094 17.6295 12.0005 17.6295C10.2916 17.6295 10.0891 17.6228 9.41439 17.5921C8.79038 17.5633 8.45171 17.459 8.22598 17.3714C7.92731 17.2554 7.71397 17.1168 7.48997 16.8928C7.26597 16.6688 7.1273 16.456 7.01103 16.1572C6.92343 15.9318 6.81903 15.5932 6.79063 14.9692C6.75996 14.2945 6.75383 14.0918 6.75383 12.3827C6.75383 10.6736 6.75996 10.472 6.79063 9.79737C6.81916 9.17336 6.92343 8.83469 7.01103 8.60909C7.12703 8.31042 7.26597 8.09709 7.48997 7.87308C7.71397 7.64908 7.92731 7.51041 8.22598 7.39415C8.45158 7.30614 8.79038 7.20214 9.41439 7.17348C10.0048 7.14681 10.2336 7.13881 11.4264 7.13748V7.13908ZM15.4169 8.20176C14.9928 8.20176 14.6488 8.54536 14.6488 8.9695C14.6488 9.3935 14.9928 9.73751 15.4169 9.73751C15.8409 9.73751 16.1849 9.3935 16.1849 8.9695C16.1849 8.54549 15.8409 8.20176 15.4169 8.20176ZM12.0006 9.0991C10.1855 9.0991 8.71389 10.5707 8.71389 12.3858C8.71389 14.2009 10.1855 15.6718 12.0006 15.6718C13.8157 15.6718 15.2868 14.2009 15.2868 12.3858C15.2868 10.5707 13.8157 9.0991 12.0006 9.0991ZM12.0006 10.2524C13.1787 10.2524 14.1339 11.2075 14.1339 12.3858C14.1339 13.5639 13.1787 14.5192 12.0006 14.5192C10.8223 14.5192 9.86721 13.5639 9.86721 12.3858C9.86721 11.2075 10.8223 10.2524 12.0006 10.2524Z" fill="white"/>
</svg>
